<svg width="16" height="20" viewBox="0 0 16 20" fill="none" xmlns="http://www.w3.org/2000/svg">
<path fill-rule="evenodd" clip-rule="evenodd" d="M0.387116 8.79031L0.292909 8.70712C-0.0675753 8.34664 -0.0953052 7.77941 0.20972 7.38712L0.292909 7.29291L7.29291 0.292908L7.33687 0.251511L7.40471 0.19635L7.51595 0.124686L7.62868 0.0712407L7.73402 0.0358603L7.88192 0.00692248L8.00002 1.52588e-05L8.07525 0.00280309L8.20074 0.0202553L8.31216 0.0497534L8.42324 0.0936887L8.52072 0.146011L8.62546 0.219704L8.70712 0.292908L15.7071 7.29291C16.0976 7.68343 16.0976 8.3166 15.7071 8.70712C15.3466 9.06761 14.7794 9.09534 14.3871 8.79031L14.2929 8.70712L9.00002 3.41602V19C9.00002 19.5523 8.5523 20 8.00002 20C7.44773 20 7.00002 19.5523 7.00002 19V3.41402L1.70712 8.70712C1.34664 9.06761 0.779407 9.09534 0.387116 8.79031L0.292909 8.70712L0.387116 8.79031Z" fill="#FAFAFA"/>
</svg>
