<svg width="18" height="14" viewBox="0 0 18 14" fill="none" xmlns="http://www.w3.org/2000/svg">
<path fill-rule="evenodd" clip-rule="evenodd" d="M7.99187 0.655958L7.92255 0.577452C7.62215 0.277049 7.14945 0.25394 6.82254 0.508128L6.74404 0.577452L0.910704 6.41078L0.876206 6.44742L0.830238 6.50395L0.770519 6.59665L0.72598 6.69059L0.696497 6.77838L0.672382 6.90163L0.666626 7.00004L0.668949 7.06274L0.683493 7.16731L0.708074 7.26016L0.744687 7.35272L0.788289 7.43396L0.8497 7.52125L0.910704 7.58929L6.74404 13.4226C7.06947 13.7481 7.59711 13.7481 7.92255 13.4226C8.22295 13.1222 8.24606 12.6495 7.99187 12.3226L7.92255 12.2441L3.51329 7.83337H16.5C16.9602 7.83337 17.3333 7.46028 17.3333 7.00004C17.3333 6.5398 16.9602 6.16671 16.5 6.16671H3.51163L7.92255 1.75596C8.22295 1.45556 8.24606 0.982867 7.99187 0.655958L7.92255 0.577452L7.99187 0.655958Z" fill="#404040"/>
</svg>
