<svg width="20" height="24" viewBox="0 0 20 24" fill="none" xmlns="http://www.w3.org/2000/svg">
<path fill-rule="evenodd" clip-rule="evenodd" d="M15.8334 7.33334C16.4777 7.33334 17 7.85567 17 8.5V20.1667C17 22.0997 15.433 23.6667 13.5 23.6667H6.50002C4.56702 23.6667 3.00002 22.0997 3.00002 20.1667V8.5C3.00002 7.85567 3.52235 7.33334 4.16669 7.33334H15.8334ZM14.6667 9.66667H5.33335V20.1667C5.33335 20.811 5.85569 21.3333 6.50002 21.3333H13.5C14.1444 21.3333 14.6667 20.811 14.6667 20.1667V9.66667ZM6.50002 1.5C6.50002 0.85567 7.02235 0.333336 7.66669 0.333336H12.3334C12.9777 0.333336 13.5 0.85567 13.5 1.5V2.66667H18.1667C18.811 2.66667 19.3334 3.189 19.3334 3.83334C19.3334 4.47767 18.811 5 18.1667 5H1.83335C1.18902 5 0.666687 4.47767 0.666687 3.83334C0.666687 3.189 1.18902 2.66667 1.83335 2.66667H6.50002V1.5Z" fill="black"/>
</svg>
