<svg width="24" height="22" viewBox="0 0 24 22" fill="#101010" xmlns="http://www.w3.org/2000/svg">
<path fill-rule="evenodd" clip-rule="evenodd" d="M7.65065 2.77802C6.36965 2.77802 5.08981 3.24119 4.11448 4.16869C3.18115 5.05769 2.66665 6.23719 2.66665 7.49019C2.66665 8.74202 3.18115 9.92152 4.11448 10.8105L12 18.3145L19.8855 10.8105C20.8188 9.92152 21.3333 8.74202 21.3333 7.49019C21.3333 6.23836 20.8188 5.05769 19.8855 4.16869C17.936 2.31369 14.7626 2.31369 12.8131 4.16869L12 4.94336L11.1868 4.16869C10.2115 3.24119 8.93165 2.77802 7.65065 2.77802ZM12 21.4995L2.48815 12.4474C1.09865 11.1255 0.333313 9.36502 0.333313 7.49019C0.333313 5.61536 1.09865 3.85486 2.48815 2.53186C5.07815 0.0666907 9.14398 -0.154976 12 1.86336C14.856 -0.154976 18.9218 0.0666907 21.5118 2.53186C22.9013 3.85486 23.6666 5.61536 23.6666 7.49019C23.6666 9.36502 22.9013 11.1255 21.5118 12.4474L12 21.4995Z" fill="#101010"/>
</svg>
