<svg width="118" height="20" viewBox="0 0 118 20" fill="none" xmlns="http://www.w3.org/2000/svg">
<path d="M18.841 19.4036H17.4911V2.61621L10.0255 13.7896H9.83262L2.09146 2.64346V19.4036H0.741577V0.272522H2.09146L9.94281 11.5549L17.684 0.272522H18.841L18.841 19.4036Z" fill="#101010"/>
<path d="M30.0808 11.882L21.8713 0.272522H23.5794L30.8522 10.4921L37.9597 0.272522H39.833L31.5133 11.8275V19.4036H30.0808V11.882Z" fill="#101010"/>
<path d="M46.4722 18.0955H57.8222V19.4036H46.4722H46.1416H45.1223V0.272522H46.4722V18.0955Z" fill="#508B8C"/>
<path d="M61.3484 18.4498C62.5422 18.4498 63.6396 18.2272 64.6405 17.7821C65.6414 17.337 66.5046 16.7284 67.2301 15.9562C67.9555 15.1841 68.5203 14.2802 68.9243 13.2446C69.3284 12.209 69.5304 11.1008 69.5304 9.91982V9.86532C69.5304 8.68438 69.3238 7.57159 68.9105 6.52692C68.4973 5.48224 67.928 4.57384 67.2025 3.80169C66.4771 3.02954 65.6093 2.41636 64.5992 1.96216C63.5891 1.50795 62.4871 1.28085 61.2933 1.28085C60.0996 1.28085 59.0022 1.50341 58.0013 1.94853C57.0003 2.39365 56.1372 3.00229 55.4117 3.77444C54.6863 4.54658 54.1215 5.45045 53.7175 6.48604C53.3134 7.52162 53.1114 8.62988 53.1114 9.81081V9.86532C53.1114 11.0463 53.318 12.1591 53.7312 13.2037C54.1445 14.2484 54.7138 15.1568 55.4393 15.929C56.1647 16.7011 57.0325 17.3143 58.0426 17.7685C59.0527 18.2227 60.1547 18.4498 61.3484 18.4498ZM61.2933 19.7306C59.8241 19.7306 58.4972 19.4627 57.3126 18.9267C56.128 18.3907 55.1133 17.6731 54.2684 16.7738C53.4236 15.8744 52.7716 14.8343 52.3125 13.6534C51.8534 12.4725 51.6238 11.2279 51.6238 9.91983V9.86532C51.6238 8.55721 51.8579 7.30815 52.3263 6.11813C52.7946 4.92812 53.4512 3.87891 54.296 2.9705C55.1408 2.06209 56.1601 1.3399 57.3539 0.803939C58.5477 0.267977 59.8792 0 61.3484 0C62.7993 0 64.1217 0.267977 65.3154 0.803939C66.5092 1.3399 67.5285 2.05755 68.3733 2.95687C69.2182 3.85619 69.8701 4.89632 70.3293 6.07725C70.7884 7.25819 71.018 8.50271 71.018 9.81081C71.0364 9.82898 71.0364 9.84715 71.018 9.86532C71.018 11.1734 70.7838 12.4225 70.3155 13.6125C69.8472 14.8025 69.1906 15.8517 68.3458 16.7601C67.501 17.6686 66.4771 18.3907 65.2741 18.9267C64.0712 19.4627 62.7442 19.7306 61.2933 19.7306Z" fill="#508B8C"/>
<path d="M90.3572 3.81531C89.6225 3.03408 88.7502 2.41636 87.74 1.96216C86.7299 1.50796 85.628 1.28085 84.4342 1.28085C83.2404 1.28085 82.1431 1.50341 81.1422 1.94853C80.1412 2.39365 79.278 3.00229 78.5526 3.77444C77.8271 4.54659 77.2624 5.45045 76.8583 6.48604C76.4543 7.52163 76.2523 8.62989 76.2523 9.81082V9.86533C76.2523 11.0463 76.4589 12.1591 76.8721 13.2037C77.2853 14.2484 77.8547 15.1568 78.5801 15.929C79.3056 16.7011 80.1734 17.3143 81.1835 17.7685C82.1936 18.2227 83.2955 18.4498 84.4893 18.4498C85.6831 18.4498 86.7804 18.2272 87.7814 17.7821C88.7823 17.337 89.6455 16.7284 90.3709 15.9562C91.0964 15.1841 91.6611 14.2802 92.0652 13.2446C92.359 12.4815 92.5427 11.6821 92.6161 10.8464H85.0954V9.51105H92.7539H94.1313L94.1589 9.81082C94.1772 9.82899 94.1772 9.84716 94.1589 9.86533C94.1589 11.1734 93.9247 12.4225 93.4564 13.6125C92.9881 14.8025 92.3315 15.8518 91.4867 16.7602C90.6418 17.6686 89.6179 18.3907 88.415 18.9267C87.212 19.4627 85.8851 19.7307 84.4342 19.7307C82.965 19.7307 81.638 19.4627 80.4534 18.9267C79.2689 18.3907 78.2541 17.6731 77.4093 16.7738C76.5645 15.8745 75.9125 14.8343 75.4534 13.6534C74.9942 12.4725 74.7646 11.2279 74.7646 9.91983V9.86533C74.7646 8.55722 74.9988 7.30815 75.4671 6.11814C75.9355 4.92812 76.592 3.87891 77.4369 2.9705C78.2817 2.06209 79.301 1.33991 80.4948 0.803944C81.6885 0.267982 83.0201 0 84.4893 0C85.9402 0 87.2625 0.267982 88.4563 0.803944C89.6501 1.33991 90.6694 2.05301 91.5142 2.94325L90.3572 3.81531Z" fill="#508B8C"/>
<path d="M107.575 18.4498C108.769 18.4498 109.866 18.2272 110.867 17.7821C111.868 17.337 112.731 16.7284 113.457 15.9562C114.182 15.1841 114.747 14.2802 115.151 13.2446C115.555 12.209 115.757 11.1008 115.757 9.91982V9.86532C115.757 8.68438 115.55 7.57159 115.137 6.52692C114.724 5.48224 114.155 4.57384 113.429 3.80169C112.704 3.02954 111.836 2.41636 110.826 1.96216C109.816 1.50795 108.714 1.28085 107.52 1.28085C106.326 1.28085 105.229 1.50341 104.228 1.94853C103.227 2.39365 102.364 3.00229 101.638 3.77444C100.913 4.54658 100.348 5.45045 99.944 6.48604C99.54 7.52162 99.338 8.62988 99.338 9.81081V9.86532C99.338 11.0463 99.5446 12.1591 99.9578 13.2037C100.371 14.2484 100.94 15.1568 101.666 15.929C102.391 16.7011 103.259 17.3143 104.269 17.7685C105.279 18.2227 106.381 18.4498 107.575 18.4498ZM107.52 19.7306C106.051 19.7306 104.724 19.4627 103.539 18.9267C102.355 18.3907 101.34 17.6731 100.495 16.7738C99.6502 15.8744 98.9982 14.8343 98.5391 13.6534C98.0799 12.4725 97.8503 11.2279 97.8503 9.91983V9.86532C97.8503 8.55721 98.0845 7.30815 98.5528 6.11813C99.0212 4.92812 99.6777 3.87891 100.523 2.9705C101.367 2.06209 102.387 1.3399 103.58 0.803939C104.774 0.267977 106.106 0 107.575 0C109.026 0 110.348 0.267977 111.542 0.803939C112.736 1.3399 113.755 2.05755 114.6 2.95687C115.445 3.85619 116.097 4.89632 116.556 6.07725C117.015 7.25819 117.245 8.50271 117.245 9.81081C117.263 9.82898 117.263 9.84715 117.245 9.86532C117.245 11.1734 117.01 12.4225 116.542 13.6125C116.074 14.8025 115.417 15.8517 114.572 16.7601C113.728 17.6686 112.704 18.3907 111.501 18.9267C110.298 19.4627 108.971 19.7306 107.52 19.7306H107.52Z" fill="#508B8C"/>
</svg>
