<svg width="14" height="14" viewBox="0 0 14 14" fill="none" xmlns="http://www.w3.org/2000/svg">
<path fill-rule="evenodd" clip-rule="evenodd" d="M6.99998 0.333336C7.46022 0.333336 7.83331 0.706432 7.83331 1.16667V6.16667H12.8333C13.2935 6.16667 13.6666 6.53976 13.6666 7C13.6666 7.46024 13.2935 7.83333 12.8333 7.83333H7.83331V12.8333C7.83331 13.2936 7.46022 13.6667 6.99998 13.6667C6.53974 13.6667 6.16665 13.2936 6.16665 12.8333V7.83333H1.16665C0.706409 7.83333 0.333313 7.46024 0.333313 7C0.333313 6.53976 0.706409 6.16667 1.16665 6.16667H6.16665V1.16667C6.16665 0.706432 6.53974 0.333336 6.99998 0.333336Z" fill="#404040"/>
</svg>
