<svg width="14" height="14" viewBox="0 0 14 14" fill="none" xmlns="http://www.w3.org/2000/svg">
<path fill-rule="evenodd" clip-rule="evenodd" d="M7.00001 0.333252C10.6819 0.333252 13.6667 3.31802 13.6667 6.99992C13.6667 10.6818 10.6819 13.6666 7.00001 13.6666C3.31811 13.6666 0.333344 10.6818 0.333344 6.99992C0.333344 3.31802 3.31811 0.333252 7.00001 0.333252ZM7.00001 1.66659C4.05449 1.66659 1.66668 4.0544 1.66668 6.99992C1.66668 9.94544 4.05449 12.3333 7.00001 12.3333C9.94553 12.3333 12.3333 9.94544 12.3333 6.99992C12.3333 4.0544 9.94553 1.66659 7.00001 1.66659ZM9.19527 4.52851L5.66668 8.05711L4.80475 7.19518C4.5444 6.93483 4.12229 6.93483 3.86194 7.19518C3.60159 7.45553 3.60159 7.87764 3.86194 8.13799L5.19527 9.47132C5.45562 9.73167 5.87773 9.73167 6.13808 9.47132L10.1381 5.47132C10.3984 5.21097 10.3984 4.78886 10.1381 4.52851C9.87773 4.26816 9.45562 4.26816 9.19527 4.52851Z" fill="black"/>
</svg>
